<svg xmlns="http://www.w3.org/2000/svg" xmlns:xlink="http://www.w3.org/1999/xlink" version="1.1" x="0px" y="0px" viewBox="0 0 90 112.5" enable-background="new 0 0 90 90" xml:space="preserve"><path d="M82.441,49.951c-1.377-0.388-2.28,0.398-1.009,1.484c0.535,0.457,1.214,0.854,1.117,1.668  c-0.09,0.741-0.72,1.393-1.394,1.656c-0.054,0.021-0.105,0.04-0.157,0.053c-0.023,0.007-0.06,0.018-0.067,0.017  c0.017-0.006-0.105,0.029-0.092,0.021c-0.141,0.03-0.287,0.055-0.438,0.069c-0.604,0.063-1.282,0.004-2.021-0.179  c-2.751-0.678-5.362-2.006-7.786-3.448c-4.462-2.653-9.562-6.025-11.702-10.969c-0.974-2.251-1.102-3.999-1.102-3.999  s-0.611,0.065-0.908,0.107c-2.416,0.337-4.045,1.707-4.045,1.707c0.961-1.238,2.42-2.175,3.787-2.731  c0.423-0.173,0.858-0.354,1.288-0.553c0.571-0.266,1.125-0.56,1.622-0.91c0.442-0.311,0.834-0.709,1.162-1.162  c0.703-0.965,1.114-2.178,1.09-3.318c-0.035-1.589-0.724-2.603-1.426-3.963c-0.347-0.674-0.573-1.42-0.924-2.075  C57.848,15.208,51.994,4.649,45,4.539c-6.994,0.111-12.847,10.669-14.437,18.888c-0.35,0.655-0.578,1.401-0.924,2.075  c-0.702,1.36-1.391,2.374-1.424,3.963c-0.025,1.14,0.386,2.353,1.088,3.318c0.329,0.453,0.721,0.851,1.164,1.162  c0.497,0.35,1.051,0.644,1.622,0.91c0.429,0.199,0.864,0.38,1.289,0.553c1.367,0.556,2.826,1.493,3.785,2.731  c0,0-1.626-1.37-4.044-1.707c-0.297-0.042-0.908-0.107-0.908-0.107s-0.128,1.748-1.102,3.999c-2.14,4.944-7.239,8.316-11.703,10.969  c-2.423,1.442-5.033,2.771-7.785,3.448c-0.738,0.183-1.418,0.242-2.021,0.179c-0.151-0.015-0.298-0.039-0.44-0.069  c0.015,0.008-0.106-0.027-0.09-0.021c-0.008,0.001-0.044-0.01-0.067-0.017c-0.052-0.013-0.105-0.032-0.157-0.053  c-0.674-0.264-1.305-0.915-1.395-1.656c-0.097-0.814,0.582-1.211,1.118-1.668c1.272-1.086,0.369-1.872-1.009-1.484  c-1.812,0.515-2.946,2.184-2.551,4.07c0.087,0.432,0.245,0.854,0.467,1.257c-0.014,0.057-0.024,0.113-0.024,0.174  c0,0.282,0.162,0.523,0.395,0.643c-0.009,0.048-0.014,0.095-0.014,0.146c0,0.401,0.325,0.726,0.727,0.726  c0,0.4,0.325,0.729,0.727,0.729c0.171,0,0.327-0.062,0.451-0.163c0.079,0.316,0.363,0.552,0.704,0.552  c0.212,0,0.402-0.093,0.535-0.237C8.983,57.846,8.992,57.847,9,57.85c0.103,0.276,0.366,0.477,0.68,0.477  c0.243,0,0.457-0.122,0.589-0.305c0.021,0.002,0.042,0.002,0.063,0.004c0.051,0.351,0.35,0.622,0.716,0.622  c0.355,0,0.65-0.257,0.713-0.595c0.117,0.246,0.365,0.417,0.654,0.417c0.356,0,0.651-0.255,0.714-0.593  c0.109,0.263,0.368,0.449,0.671,0.449c0.396,0,0.716-0.318,0.725-0.712c0.126,0.217,0.358,0.365,0.627,0.365  c0.381,0,0.691-0.296,0.721-0.671c0.13,0.195,0.352,0.323,0.603,0.323c0.363,0,0.661-0.267,0.716-0.614  c0.078,0.028,0.162,0.048,0.25,0.048c0.362,0,0.661-0.268,0.716-0.614c0.078,0.028,0.161,0.046,0.25,0.046  c0.362,0,0.661-0.265,0.715-0.614c0.079,0.03,0.162,0.049,0.251,0.049c0.362,0,0.66-0.268,0.715-0.614  c0.078,0.028,0.162,0.046,0.25,0.046c0.358,0,0.654-0.26,0.714-0.601c0.005-0.002,0.011-0.005,0.016-0.008  c0.074,0.025,0.152,0.042,0.235,0.042c0.346,0,0.633-0.242,0.707-0.564c0.02-0.011,0.039-0.022,0.059-0.033  c0.063,0.018,0.13,0.031,0.2,0.031c0.352,0,0.645-0.25,0.712-0.582c0.011-0.008,0.023-0.015,0.034-0.021  c0.07,0.021,0.142,0.036,0.219,0.036c0.362,0,0.661-0.266,0.715-0.613c0.079,0.028,0.162,0.047,0.25,0.047  c0.363,0,0.661-0.267,0.716-0.614c0.079,0.028,0.162,0.046,0.25,0.046c0.363,0,0.661-0.265,0.716-0.612  c0.074,0.027,0.153,0.045,0.237,0.045c-0.401,0.552-0.776,1.108-1.125,1.67c-1.042,1.68-1.863,3.372-2.604,5.001  c-0.74,1.628-1.402,3.2-2.087,4.676c-0.172,0.369-0.342,0.729-0.52,1.092l-0.535,1.076c-0.355,0.701-0.715,1.363-1.094,1.978  c-0.755,1.229-1.598,2.261-2.54,2.934c-0.47,0.339-0.96,0.59-1.475,0.757c-0.511,0.165-1.063,0.254-1.568,0.251  c-1.025,0.006-1.966-0.352-2.583-0.917c-0.625-0.562-0.935-1.317-0.966-2.137c-0.015-0.399,0.037-0.859,0.129-1.185  c0.104-0.371,0.271-0.742,0.462-1.056c0.19-0.313,0.409-0.575,0.615-0.749c0.208-0.179,0.386-0.267,0.548-0.303  c0.167-0.041,0.338-0.022,0.569,0.047c0.114,0.021,0.267,0.119,0.392,0.261c0.257,0.291,0.394,0.681,0.443,0.975  c0.052,0.303,0.032,0.538,0.008,0.736c-0.023,0.199-0.049,0.36,0.033,0.478c0.08,0.114,0.181,0.195,0.326,0.217  c0.144,0.019,0.335-0.023,0.546-0.179c0.423-0.298,0.879-1.118,0.7-2.248c-0.046-0.281-0.13-0.581-0.281-0.896  c-0.151-0.312-0.369-0.644-0.709-0.943c-0.175-0.152-0.362-0.287-0.622-0.407l-0.084-0.038l-0.025-0.013l-0.006-0.002  c-0.042-0.017,0.049,0.021,0.036,0.016l-0.019-0.009c-0.051-0.023-0.1-0.047-0.154-0.066c-0.105-0.044-0.217-0.084-0.333-0.117  c-0.464-0.138-1.035-0.167-1.577-0.035c-0.544,0.129-1.042,0.396-1.463,0.729c-0.423,0.332-0.783,0.728-1.099,1.171  c-0.314,0.446-0.587,0.937-0.805,1.51c-0.108,0.275-0.205,0.625-0.262,0.917c-0.063,0.303-0.108,0.623-0.13,0.958  C6.236,68.493,6.246,68.9,6.3,69.316c-0.05,0.1-0.081,0.209-0.081,0.326c0,0.187,0.072,0.354,0.187,0.481  c-0.114,0.13-0.187,0.298-0.187,0.483c0,0.25,0.125,0.469,0.317,0.599c-0.077,0.117-0.122,0.255-0.122,0.403  c0,0.361,0.264,0.659,0.608,0.716c-0.021,0.066-0.035,0.137-0.035,0.209c0,0.403,0.325,0.729,0.727,0.729  c0.066,0,0.128-0.011,0.189-0.028c-0.021,0.068-0.036,0.139-0.036,0.215c0,0.4,0.325,0.727,0.727,0.727  c0.135,0,0.26-0.04,0.369-0.104c0.042,0.362,0.346,0.644,0.718,0.644c0.148,0,0.286-0.044,0.401-0.12  c0.085,0.307,0.363,0.534,0.697,0.534c0.182,0,0.344-0.069,0.472-0.179c0.123,0.229,0.36,0.385,0.638,0.385  c0.387,0,0.701-0.304,0.722-0.685c0.003,0,0.005,0,0.008,0c0.022,0.381,0.336,0.685,0.723,0.685c0.345,0,0.633-0.241,0.707-0.564  c0.126,0.214,0.357,0.358,0.623,0.358c0.402,0,0.727-0.324,0.727-0.728c0-0.021-0.004-0.041-0.006-0.062  c0.134,0.162,0.334,0.271,0.561,0.271c0.355,0,0.649-0.256,0.713-0.592c0.133,0.169,0.337,0.278,0.567,0.278  c0.402,0,0.727-0.325,0.727-0.725c0-0.119-0.03-0.228-0.081-0.326c0.131,0.125,0.308,0.204,0.503,0.204  c0.401,0,0.726-0.326,0.726-0.728c0-0.052-0.005-0.104-0.016-0.152c0.123,0.096,0.273,0.152,0.439,0.152  c0.402,0,0.727-0.325,0.727-0.727c0-0.091-0.019-0.176-0.049-0.256c0.098,0.049,0.207,0.078,0.323,0.078  c0.402,0,0.727-0.324,0.727-0.725c0-0.08-0.016-0.154-0.039-0.226c0.049,0.009,0.098,0.015,0.15,0.015  c0.401,0,0.727-0.324,0.727-0.725c0-0.058-0.007-0.111-0.02-0.163c0.308-0.083,0.537-0.363,0.537-0.697  c0-0.058-0.007-0.111-0.02-0.163c0.309-0.083,0.537-0.363,0.537-0.699c0-0.055-0.008-0.109-0.02-0.16  c0.309-0.084,0.536-0.364,0.536-0.7c0-0.055-0.007-0.109-0.019-0.16c0.308-0.084,0.536-0.364,0.536-0.699  c0-0.056-0.007-0.11-0.02-0.163c0.309-0.084,0.537-0.363,0.537-0.697c0-0.056-0.007-0.11-0.02-0.163  c0.309-0.083,0.537-0.363,0.537-0.699c0-0.054-0.007-0.107-0.02-0.16c0.309-0.084,0.537-0.364,0.537-0.7  c0-0.055-0.008-0.107-0.02-0.16c0.309-0.084,0.537-0.364,0.537-0.699c0-0.056-0.007-0.11-0.02-0.163  c0.309-0.083,0.537-0.362,0.537-0.697c0-0.056-0.008-0.11-0.021-0.163c0.309-0.083,0.537-0.362,0.537-0.697  c0-0.119-0.031-0.23-0.081-0.327c0.377-0.027,0.677-0.339,0.677-0.723c0-0.189-0.074-0.36-0.192-0.488  c0.336-0.063,0.591-0.358,0.591-0.713c0-0.146-0.044-0.281-0.118-0.395c0.018,0,0.036,0.005,0.054,0.005  c0.089,0,0.173-0.019,0.251-0.049c-0.156,1.4-0.15,2.796,0,4.12c0.184,1.643,0.564,3.171,1,4.583  c0.438,1.412,0.928,2.717,1.397,3.955l0.358,0.936c0.113,0.285,0.221,0.568,0.321,0.847c0.202,0.559,0.377,1.106,0.52,1.64  c0.286,1.068,0.438,2.086,0.425,3.015c-0.007,0.464-0.053,0.905-0.139,1.32c-0.043,0.207-0.096,0.41-0.157,0.604  c-0.03,0.095-0.065,0.195-0.097,0.283c-0.033,0.086-0.065,0.166-0.104,0.25c-0.302,0.661-0.765,1.194-1.277,1.553  c-0.513,0.362-1.064,0.552-1.561,0.601c-1.004,0.103-1.778-0.355-2.31-0.755c-0.534-0.405-0.877-0.703-1.14-0.582  c-0.252,0.115-0.4,0.318-0.379,0.694c0.012,0.188,0.067,0.418,0.191,0.691c0.124,0.271,0.318,0.587,0.625,0.92  c0.309,0.33,0.736,0.679,1.317,0.943c0.023,0.012,0.049,0.022,0.074,0.031c0.133,0.167,0.335,0.274,0.564,0.274  c0.064,0,0.126-0.011,0.185-0.026c0.013,0.004,0.025,0.007,0.038,0.009c0.123,0.227,0.36,0.381,0.635,0.381  c0.196,0,0.373-0.079,0.504-0.203c0.09,0.298,0.364,0.517,0.692,0.517c0.383,0,0.693-0.298,0.721-0.674  c0.126,0.105,0.288,0.174,0.467,0.174c0.401,0,0.727-0.325,0.727-0.727c0-0.028-0.005-0.056-0.008-0.083  c0.118,0.081,0.26,0.13,0.413,0.13c0.401,0,0.727-0.324,0.727-0.727c0-0.063-0.011-0.125-0.026-0.185  c0.103,0.057,0.22,0.092,0.346,0.092c0.402,0,0.727-0.324,0.727-0.728c0-0.119-0.032-0.23-0.083-0.33  c0.005,0,0.011,0.001,0.016,0.001c0.401,0,0.727-0.324,0.727-0.727c0-0.154-0.049-0.296-0.131-0.413  c0.36-0.044,0.639-0.347,0.639-0.718c0-0.141-0.041-0.269-0.109-0.38c0.283-0.099,0.486-0.366,0.486-0.683  c0-0.143-0.042-0.273-0.114-0.386c0.271-0.106,0.464-0.368,0.464-0.677c0-0.209-0.09-0.396-0.232-0.528  c0.197-0.13,0.328-0.354,0.328-0.607c0-0.271-0.151-0.505-0.372-0.629c0.14-0.133,0.228-0.319,0.228-0.527  c0-0.294-0.176-0.547-0.427-0.66c0.162-0.133,0.268-0.333,0.268-0.56c0-0.241-0.119-0.453-0.3-0.585  c0.097-0.124,0.157-0.277,0.157-0.446c0-0.369-0.276-0.671-0.632-0.717c0.128-0.131,0.208-0.31,0.208-0.509  c0-0.327-0.218-0.601-0.515-0.691c0.132-0.131,0.213-0.312,0.213-0.513c0-0.383-0.295-0.692-0.669-0.722  c0.225-0.123,0.379-0.36,0.379-0.633c0-0.382-0.296-0.691-0.67-0.722c0.225-0.123,0.379-0.359,0.379-0.634  c0-0.382-0.295-0.691-0.669-0.721c0.225-0.124,0.379-0.358,0.379-0.635c0-0.382-0.296-0.689-0.67-0.72  c0.225-0.124,0.379-0.359,0.379-0.635c0-0.383-0.295-0.69-0.669-0.721c0.225-0.124,0.378-0.359,0.378-0.634  c0-0.293-0.173-0.543-0.422-0.657c0.199-0.131,0.33-0.354,0.33-0.607c0-0.312-0.196-0.575-0.471-0.68  c0.224-0.123,0.377-0.358,0.377-0.633c0-0.258-0.136-0.484-0.339-0.611c0.254-0.113,0.432-0.368,0.432-0.664  c0-0.229-0.107-0.429-0.271-0.562c0.216-0.127,0.363-0.358,0.363-0.626c0-0.196-0.078-0.372-0.203-0.502  c0.251-0.115,0.426-0.365,0.426-0.66c0-0.164-0.057-0.313-0.148-0.436l0.013-0.033c0.266-0.108,0.453-0.368,0.453-0.673  c0-0.052-0.005-0.1-0.015-0.148c0.25-0.115,0.423-0.365,0.423-0.657c0-0.059-0.008-0.114-0.021-0.167  c0.302-0.088,0.525-0.363,0.525-0.695c0-0.063-0.011-0.126-0.026-0.185c0.016-0.022,0.03-0.044,0.046-0.065  c0.333-0.064,0.585-0.358,0.585-0.712c0-0.005-0.001-0.011-0.002-0.016c0.295-0.062,0.521-0.302,0.567-0.602  c0.269-0.053,0.482-0.256,0.556-0.519c0.641-0.551,1.348-1.025,2.065-1.353c0.193-0.088,0.398-0.172,0.578-0.23  c0.006,0.003,0.008,0.003,0.017,0.003h0.012l0.041-0.011l0.17-0.051c0,0,0.357-0.095,0.358-0.095c1.674-0.452,3.33-0.666,4.986-0.66  c1.657-0.006,3.312,0.208,4.987,0.66l0.356,0.095l0.171,0.051l0.042,0.011h0.012c0.01,0,0.011,0,0.017-0.003  c0.18,0.059,0.387,0.143,0.579,0.23c0.717,0.327,1.424,0.802,2.065,1.353c0.072,0.263,0.285,0.466,0.556,0.519  c0.046,0.3,0.271,0.539,0.565,0.602c0,0.005,0,0.011,0,0.016c0,0.354,0.251,0.647,0.584,0.712c0.017,0.021,0.03,0.043,0.046,0.065  c-0.016,0.059-0.026,0.121-0.026,0.185c0,0.332,0.222,0.607,0.524,0.695c-0.013,0.053-0.021,0.108-0.021,0.167  c0,0.292,0.176,0.542,0.425,0.657c-0.011,0.049-0.017,0.097-0.017,0.148c0,0.305,0.189,0.564,0.454,0.673l0.014,0.033  c-0.092,0.122-0.148,0.271-0.148,0.436c0,0.295,0.176,0.545,0.425,0.66c-0.125,0.13-0.203,0.306-0.203,0.502  c0,0.268,0.148,0.499,0.364,0.626c-0.164,0.133-0.272,0.333-0.272,0.562c0,0.296,0.179,0.551,0.433,0.664  c-0.202,0.127-0.338,0.354-0.338,0.611c0,0.274,0.154,0.51,0.376,0.633c-0.273,0.104-0.471,0.368-0.471,0.68  c0,0.254,0.133,0.477,0.33,0.607c-0.247,0.114-0.422,0.364-0.422,0.657c0,0.274,0.154,0.51,0.379,0.634  c-0.373,0.03-0.668,0.338-0.668,0.721c0,0.275,0.154,0.511,0.378,0.635c-0.374,0.03-0.669,0.338-0.669,0.72  c0,0.276,0.152,0.511,0.377,0.635c-0.373,0.029-0.668,0.339-0.668,0.721c0,0.274,0.154,0.511,0.379,0.634  c-0.373,0.03-0.67,0.34-0.67,0.722c0,0.272,0.154,0.51,0.379,0.633c-0.375,0.029-0.669,0.339-0.669,0.722  c0,0.2,0.081,0.382,0.213,0.513c-0.297,0.091-0.517,0.364-0.517,0.691c0,0.199,0.081,0.378,0.209,0.509  c-0.356,0.046-0.632,0.348-0.632,0.717c0,0.169,0.06,0.322,0.155,0.446c-0.18,0.132-0.299,0.344-0.299,0.585  c0,0.227,0.106,0.427,0.27,0.56c-0.252,0.113-0.428,0.366-0.428,0.66c0,0.208,0.087,0.395,0.228,0.527  c-0.221,0.124-0.371,0.357-0.371,0.629c0,0.254,0.13,0.478,0.327,0.607c-0.144,0.133-0.232,0.319-0.232,0.528  c0,0.309,0.192,0.57,0.463,0.677c-0.07,0.112-0.112,0.243-0.112,0.386c0,0.316,0.204,0.584,0.485,0.683  c-0.067,0.111-0.109,0.239-0.109,0.38c0,0.371,0.279,0.674,0.64,0.718c-0.081,0.117-0.13,0.259-0.13,0.413  c0,0.402,0.324,0.727,0.727,0.727c0.005,0,0.011-0.001,0.016-0.001c-0.051,0.1-0.082,0.211-0.082,0.33  c0,0.403,0.324,0.728,0.725,0.728c0.127,0,0.244-0.035,0.348-0.092c-0.015,0.06-0.026,0.121-0.026,0.185  c0,0.402,0.325,0.727,0.726,0.727c0.154,0,0.297-0.049,0.414-0.13c-0.003,0.027-0.008,0.055-0.008,0.083  c0,0.401,0.324,0.727,0.725,0.727c0.18,0,0.341-0.068,0.468-0.174c0.027,0.376,0.339,0.674,0.722,0.674  c0.328,0,0.602-0.219,0.692-0.517c0.131,0.124,0.307,0.203,0.503,0.203c0.274,0,0.513-0.154,0.636-0.381  c0.013-0.002,0.025-0.005,0.036-0.009c0.06,0.016,0.122,0.026,0.188,0.026c0.229,0,0.43-0.107,0.563-0.274  c0.024-0.009,0.05-0.02,0.074-0.031c0.581-0.265,1.008-0.613,1.316-0.943c0.307-0.333,0.502-0.649,0.626-0.92  c0.122-0.273,0.179-0.503,0.189-0.691c0.021-0.376-0.127-0.579-0.379-0.694c-0.262-0.121-0.604,0.177-1.139,0.582  c-0.531,0.399-1.307,0.857-2.31,0.755c-0.498-0.049-1.049-0.238-1.562-0.601c-0.513-0.358-0.977-0.892-1.276-1.553  c-0.038-0.084-0.072-0.164-0.104-0.25c-0.033-0.088-0.067-0.188-0.097-0.283c-0.062-0.194-0.115-0.397-0.157-0.604  c-0.087-0.415-0.133-0.856-0.14-1.32c-0.014-0.929,0.14-1.946,0.424-3.015c0.144-0.533,0.319-1.081,0.52-1.64  c0.103-0.278,0.208-0.562,0.321-0.847l0.358-0.936c0.47-1.238,0.961-2.543,1.397-3.955c0.436-1.412,0.815-2.94,1.001-4.583  c0.15-1.324,0.157-2.72,0-4.12c0.078,0.03,0.162,0.049,0.252,0.049c0.019,0,0.035-0.005,0.054-0.005  c-0.074,0.113-0.119,0.248-0.119,0.395c0,0.354,0.255,0.649,0.593,0.713c-0.119,0.128-0.192,0.299-0.192,0.488  c0,0.384,0.299,0.695,0.677,0.723c-0.052,0.097-0.081,0.208-0.081,0.327c0,0.335,0.227,0.614,0.535,0.697  c-0.011,0.053-0.019,0.107-0.019,0.163c0,0.335,0.227,0.614,0.537,0.697c-0.013,0.053-0.021,0.107-0.021,0.163  c0,0.335,0.229,0.615,0.538,0.699c-0.014,0.053-0.021,0.105-0.021,0.16c0,0.336,0.229,0.616,0.538,0.7  c-0.012,0.053-0.019,0.106-0.019,0.16c0,0.336,0.228,0.616,0.535,0.699c-0.011,0.053-0.019,0.107-0.019,0.163  c0,0.334,0.228,0.613,0.535,0.697c-0.011,0.053-0.019,0.107-0.019,0.163c0,0.335,0.228,0.615,0.537,0.699  c-0.013,0.051-0.021,0.105-0.021,0.16c0,0.336,0.23,0.616,0.538,0.7c-0.013,0.051-0.02,0.105-0.02,0.16  c0,0.336,0.229,0.616,0.536,0.699c-0.013,0.052-0.019,0.105-0.019,0.163c0,0.334,0.228,0.614,0.536,0.697  c-0.012,0.052-0.02,0.105-0.02,0.163c0,0.4,0.325,0.725,0.726,0.725c0.054,0,0.103-0.006,0.151-0.015  c-0.024,0.071-0.041,0.146-0.041,0.226c0,0.4,0.327,0.725,0.728,0.725c0.116,0,0.228-0.029,0.325-0.078  c-0.03,0.08-0.049,0.165-0.049,0.256c0,0.401,0.324,0.727,0.725,0.727c0.168,0,0.316-0.057,0.441-0.152  c-0.011,0.049-0.017,0.101-0.017,0.152c0,0.401,0.325,0.728,0.726,0.728c0.194,0,0.373-0.079,0.503-0.204  c-0.049,0.099-0.081,0.207-0.081,0.326c0,0.399,0.327,0.725,0.728,0.725c0.232,0,0.436-0.109,0.568-0.278  c0.064,0.336,0.356,0.592,0.714,0.592c0.225,0,0.428-0.108,0.56-0.271c-0.002,0.021-0.008,0.041-0.008,0.062  c0,0.403,0.327,0.728,0.728,0.728c0.266,0,0.498-0.145,0.622-0.358c0.076,0.323,0.363,0.564,0.709,0.564  c0.387,0,0.701-0.304,0.723-0.685c0.003,0,0.005,0,0.008,0c0.021,0.381,0.336,0.685,0.723,0.685c0.275,0,0.514-0.156,0.636-0.385  c0.13,0.109,0.292,0.179,0.473,0.179c0.333,0,0.611-0.228,0.698-0.534c0.114,0.076,0.252,0.12,0.4,0.12  c0.373,0,0.677-0.281,0.717-0.644c0.108,0.064,0.235,0.104,0.371,0.104c0.4,0,0.725-0.326,0.725-0.727  c0-0.076-0.014-0.146-0.035-0.215c0.062,0.018,0.125,0.028,0.189,0.028c0.4,0,0.728-0.325,0.728-0.729  c0-0.072-0.016-0.143-0.035-0.209c0.344-0.057,0.608-0.354,0.608-0.716c0-0.148-0.046-0.286-0.124-0.403  c0.192-0.13,0.319-0.349,0.319-0.599c0-0.186-0.073-0.354-0.189-0.483c0.116-0.127,0.189-0.295,0.189-0.481  c0-0.117-0.032-0.227-0.081-0.326c0.054-0.416,0.062-0.823,0.038-1.207c-0.022-0.335-0.068-0.655-0.13-0.958  c-0.058-0.292-0.154-0.642-0.263-0.917c-0.219-0.573-0.492-1.063-0.807-1.51c-0.313-0.443-0.673-0.839-1.098-1.171  c-0.422-0.333-0.917-0.6-1.464-0.729c-0.541-0.132-1.111-0.103-1.577,0.035c-0.116,0.033-0.228,0.073-0.333,0.117  c-0.054,0.02-0.103,0.043-0.154,0.066l-0.019,0.009c-0.008,0.003,0.021-0.008,0.038-0.016l-0.006,0.002l-0.026,0.013l-0.084,0.038  c-0.26,0.12-0.446,0.255-0.622,0.407c-0.341,0.3-0.558,0.631-0.709,0.943c-0.149,0.314-0.235,0.614-0.281,0.896  c-0.179,1.13,0.278,1.95,0.7,2.248c0.211,0.155,0.403,0.197,0.547,0.179c0.146-0.021,0.246-0.103,0.327-0.217  c0.081-0.117,0.054-0.278,0.032-0.478c-0.024-0.198-0.046-0.434,0.009-0.736c0.048-0.294,0.184-0.684,0.44-0.975  c0.127-0.142,0.278-0.24,0.393-0.261c0.232-0.069,0.402-0.088,0.57-0.047c0.16,0.036,0.338,0.124,0.547,0.303  c0.205,0.174,0.425,0.436,0.616,0.749c0.189,0.313,0.357,0.685,0.46,1.056c0.095,0.325,0.146,0.785,0.13,1.185  c-0.029,0.819-0.341,1.574-0.966,2.137c-0.616,0.565-1.558,0.923-2.583,0.917c-0.506,0.003-1.058-0.086-1.569-0.251  c-0.514-0.167-1.004-0.418-1.475-0.757c-0.941-0.673-1.785-1.705-2.54-2.934c-0.379-0.614-0.738-1.276-1.093-1.978L70.216,64.4  c-0.176-0.362-0.347-0.723-0.52-1.092c-0.685-1.476-1.348-3.048-2.086-4.676c-0.741-1.629-1.563-3.321-2.605-5.001  c-0.349-0.562-0.724-1.118-1.125-1.67c0.084,0,0.164-0.018,0.238-0.045c0.054,0.348,0.352,0.612,0.715,0.612  c0.088,0,0.172-0.018,0.251-0.046c0.054,0.348,0.352,0.614,0.714,0.614c0.089,0,0.173-0.019,0.252-0.047  c0.054,0.348,0.352,0.613,0.714,0.613c0.078,0,0.15-0.015,0.219-0.036c0.013,0.007,0.024,0.014,0.035,0.021  c0.068,0.332,0.36,0.582,0.712,0.582c0.07,0,0.135-0.014,0.2-0.031c0.019,0.011,0.04,0.022,0.06,0.033  c0.073,0.322,0.359,0.564,0.706,0.564c0.084,0,0.162-0.017,0.235-0.042c0.005,0.003,0.011,0.006,0.016,0.008  c0.06,0.341,0.357,0.601,0.715,0.601c0.089,0,0.173-0.018,0.251-0.046c0.055,0.347,0.352,0.614,0.715,0.614  c0.089,0,0.173-0.019,0.251-0.049c0.055,0.35,0.352,0.614,0.715,0.614c0.089,0,0.173-0.018,0.249-0.046  c0.057,0.347,0.354,0.614,0.717,0.614c0.089,0,0.17-0.02,0.248-0.048c0.058,0.348,0.354,0.614,0.718,0.614  c0.251,0,0.473-0.128,0.603-0.323c0.03,0.375,0.339,0.671,0.72,0.671c0.271,0,0.503-0.148,0.628-0.365  c0.008,0.394,0.33,0.712,0.725,0.712c0.303,0,0.562-0.187,0.671-0.449c0.062,0.338,0.357,0.593,0.714,0.593  c0.29,0,0.539-0.171,0.655-0.417c0.062,0.338,0.357,0.595,0.711,0.595c0.368,0,0.666-0.271,0.718-0.622  c0.021-0.002,0.043-0.002,0.062-0.004c0.133,0.183,0.347,0.305,0.59,0.305c0.313,0,0.576-0.2,0.679-0.477  c0.009-0.003,0.02-0.004,0.027-0.005c0.133,0.145,0.322,0.237,0.533,0.237c0.341,0,0.625-0.235,0.703-0.552  c0.125,0.101,0.281,0.163,0.452,0.163c0.402,0,0.728-0.328,0.728-0.729c0.4,0,0.725-0.324,0.725-0.726  c0-0.051-0.002-0.098-0.014-0.146c0.233-0.119,0.396-0.36,0.396-0.643c0-0.061-0.008-0.117-0.024-0.174  c0.222-0.403,0.381-0.825,0.468-1.257C85.387,52.134,84.253,50.465,82.441,49.951z M28.871,53.633c0,0,1.661-6.765,7.264-8.87  C36.134,44.764,31.785,47.456,28.871,53.633z M36.072,32.558c-2.06,0-3.729-1.669-3.729-3.729c0-2.059,1.669-3.728,3.729-3.728  c2.059,0,4.077,2.851,4.077,4.91C40.149,32.071,38.131,32.558,36.072,32.558z M49.851,30.011c0-2.059,2.019-4.91,4.077-4.91  c2.06,0,3.73,1.669,3.73,3.728c0,2.06-1.671,3.729-3.73,3.729C51.87,32.558,49.851,32.071,49.851,30.011z M53.866,44.764  c5.603,2.105,7.264,8.87,7.264,8.87C58.215,47.456,53.866,44.764,53.866,44.764z"/><text x="0" y="105" fill="#000000" font-size="5px" font-weight="bold" font-family="'Helvetica Neue', Helvetica, Arial-Unicode, Arial, Sans-serif">Created by julian roman</text><text x="0" y="110" fill="#000000" font-size="5px" font-weight="bold" font-family="'Helvetica Neue', Helvetica, Arial-Unicode, Arial, Sans-serif">from the Noun Project</text></svg>