<svg xmlns="http://www.w3.org/2000/svg" xmlns:xlink="http://www.w3.org/1999/xlink" version="1.1" x="0px" y="0px" viewBox="0 0 100 125" enable-background="new 0 0 100 100" xml:space="preserve"><path fill="#000000" d="M88.143,65.84c-1.981,0.013-3.58,1.664-3.591,3.678c-0.012,2.016-1.628,3.655-3.665,3.655  c-2.029-0.007-3.598-1.704-3.598-3.783V59.014c0-5.657-3.856-10.146-8.999-10.986v-6.536c3.429-4.591,4.537-9.502,3.487-14.602  C68.939,13.104,50.512,2.846,49.732,2.416l-0.789-0.428L48.17,2.463c-13.683,8.679-21.313,17.35-22.587,25.773  c-0.753,4.981,0.713,9.72,4.141,14.092v5.735c-4.713,0.962-8.999,5.744-8.999,10.951V69.39c0,1.874-1.025,3.775-3.184,3.783  c-1.927,0-3.292-1.571-3.305-3.653c-0.01-2.051-1.581-3.667-3.595-3.68c-2.002,0-3.63,1.642-3.63,3.658  c0,6.161,4.701,10.987,10.704,10.987h0.167c0.32-0.006,0.637-0.024,0.948-0.058c-1.472,0.469-2.541,1.855-2.541,3.489  c0,6.161,4.643,10.988,10.566,10.988l0.175-0.002c5.826-0.09,10.406-4.979,10.406-11.131V71.36h3v23.164  c0,2.143,2.075,3.833,3.961,3.833h0.251c1.881,0,3.072-1.664,3.072-3.833V71.36h2.572v23.164c0,2.143,1.961,3.833,3.847,3.833h0.252  c1.88,0,3.186-1.664,3.186-3.833V71.36h3v12.412c0,6.046,4.874,11.035,10.832,11.127l0.194-0.002c6,0,10.882-4.937,10.882-10.996  c0-1.594-1.011-2.968-2.429-3.468c0.171,0.011,0.341-0.016,0.513-0.012l0.166-0.063c0.001,0,0.001,0,0.001,0  c2.932,0,5.7-1.079,7.784-3.156c2.09-2.079,3.245-4.774,3.245-7.705C91.766,67.481,90.155,65.84,88.143,65.84z M86.401,75.079  c-1.52,1.513-3.531,2.281-5.665,2.281c0,0,0,0-0.001,0l-0.145,0.063c-4.406-0.068-8.016-3.653-8.016-8.071V58.977  c0-3.813-2.265-6.528-5.793-6.757l-1.491-0.104V83.81c0,3.789,2.787,6.767,6.47,6.78c3.654-0.001,6.453-2.914,6.477-6.637  c0.001-0.382,0.284-0.694,0.633-0.696c0.351,0,0.61,0.284,0.61,0.66c0,4.407-3.543,7.99-7.89,7.99l-0.136-0.001  c-4.329-0.065-7.878-3.716-7.878-8.134V68.361h-8.999v26.163c0,0.457-0.116,0.751-0.164,0.784c-0.003,0.001,0.01,0.05-0.022,0.05  H54.14c-0.438,0-0.848-0.594-0.848-0.834V68.361h-8.57v26.163c0,0.457,0.029,0.834-0.073,0.834h-0.251  c-0.439,0-0.962-0.594-0.962-0.834V68.361h-9v15.411c0,4.571-3.215,8.068-7.456,8.134l-0.139,0.001c-4.313,0-7.571-3.436-7.571-7.99  c0-0.371,0.269-0.66,0.628-0.66c0.334,0.002,0.584,0.314,0.586,0.698c0.022,3.781,2.657,6.635,6.212,6.635  c3.545-0.014,6.026-2.864,6.026-6.78V52.063l-1.542,0.163c-3.17,0.311-5.744,3.402-5.744,6.751v10.376  c0,4.497-3.344,8.069-7.594,8.135l-0.136,0.001c-4.321,0-7.713-3.51-7.713-7.99c0-0.37,0.267-0.66,0.623-0.66  c0.371,0.002,0.57,0.355,0.572,0.698c0.023,3.72,2.786,6.635,6.374,6.635c3.567-0.013,6.161-2.928,6.161-6.781V59.014  c0-4.48,3.991-7.984,7.556-8.125l1.443-0.057v-9.599l-0.26-0.42c-3.236-3.801-4.455-7.882-3.813-12.129  c1.115-7.377,7.993-15.18,20.426-23.2c3.441,2.063,17.483,11.069,19.731,22.014c0.895,4.354-0.183,8.583-3.281,12.568l-0.235,0.405  v10.373l1.459,0.042c4.297,0.124,7.54,3.616,7.54,8.127V69.39c0,3.727,2.908,6.763,6.606,6.776c3.669,0,6.589-2.979,6.611-6.64  c0.002-0.382,0.286-0.703,0.635-0.704c0.35,0,0.614,0.267,0.614,0.643C88.757,71.594,87.921,73.566,86.401,75.079z M78.571,80.271  c-1.854,0.155-3.281,1.745-3.29,3.665c-0.012,2.05-1.535,3.655-3.529,3.655c-1.986-0.007-3.462-1.668-3.462-3.782V55.694  c1.286,0.868,1.286,2.639,1.286,3.282v10.376C69.576,74.716,73.485,79.252,78.571,80.271z M19.905,80.359  c4.906-0.857,8.533-5.578,8.533-11.007V58.977c0-1.238,0.429-2.345,1.286-3.036V83.81c0,1.816-0.886,3.8-3.049,3.807  c-2.211,0-3.135-1.869-3.145-3.627c-0.01-2.018-1.62-3.63-3.609-3.63C19.916,80.359,19.91,80.359,19.905,80.359z"/><path fill="#000000" d="M42.025,46.941c-2.616,0-4.745,2.128-4.745,4.745c0,2.617,2.129,4.746,4.745,4.746  c2.618,0,4.746-2.129,4.746-4.746C46.771,49.07,44.643,46.941,42.025,46.941z M42.025,53.436c-0.963,0-1.748-0.785-1.748-1.749  s0.784-1.747,1.748-1.747c0.965,0,1.749,0.783,1.749,1.747S42.99,53.436,42.025,53.436z"/><path fill="#000000" d="M57.013,46.941c-2.617,0-4.745,2.128-4.745,4.745c0,2.617,2.128,4.746,4.745,4.746s4.746-2.129,4.746-4.746  C61.759,49.07,59.63,46.941,57.013,46.941z M57.013,53.436c-0.964,0-1.748-0.785-1.748-1.749s0.784-1.747,1.748-1.747  s1.748,0.783,1.748,1.747S57.977,53.436,57.013,53.436z"/><path fill="#000000" d="M50.212,10.187l-1.543,2.57c0.184,0.111,18.375,11.244,12.958,24.11l2.763,1.164  C70.815,22.771,51.056,10.694,50.212,10.187z"/><text x="0" y="115" fill="#000000" font-size="5px" font-weight="bold" font-family="'Helvetica Neue', Helvetica, Arial-Unicode, Arial, Sans-serif">Created by Iconic</text><text x="0" y="120" fill="#000000" font-size="5px" font-weight="bold" font-family="'Helvetica Neue', Helvetica, Arial-Unicode, Arial, Sans-serif">from the Noun Project</text></svg>